<?xml version="1.0" encoding="UTF-8"?>
<svg width="477px" height="419px" viewBox="0 0 477 419" version="1.1" xmlns="http://www.w3.org/2000/svg" xmlns:xlink="http://www.w3.org/1999/xlink">
    <!-- Generator: Sketch 49.3 (51167) - http://www.bohemiancoding.com/sketch -->
    <title>angular-eslint</title>
    <desc>Created with Sketch.</desc>
    <defs></defs>
    <g id="Page-1" stroke="none" stroke-width="1" fill="none" fill-rule="evenodd">
        <g id="angular-eslint" fill-rule="nonzero">
            <g id="eslint-icon" fill="#4B32C3">
                <path d="M474.049752,200.100267 L365.800592,11.7627113 C361.872797,4.94958192 354.620908,0 346.75041,0 L130.259543,0 C122.396498,0 115.129703,5.02412382 111.201908,11.829799 L2.95274767,199.772283 C-0.984249223,206.653299 -0.984249223,215.104751 2.95274767,221.985768 L111.201908,408.713218 C115.137156,415.526348 122.396498,419 130.259543,419 L346.75041,419 C354.613455,419 361.88025,415.623252 365.808046,408.810123 L474.049752,221.709963 C477.983416,215.046595 477.983416,206.771089 474.049752,200.107721 L474.049752,200.100267 Z" id="Shape"></path>
            </g>
            <g id="Group-2" transform="translate(98.000000, 58.000000)">
                <g id="angular-(1)">
                    <g id="Group" fill="#FFFFFF">
                        <polygon id="Shape" points="141 0 141 0 141 0 0 50.298 21.5059076 236.7945 141 303 141 303 141 303 260.494092 236.7945 282 50.298"></polygon>
                    </g>
                    <polygon id="Shape" fill="#FFFFFF" points="140 0 140 33.633 140 33.4815 140 186.951 140 186.951 140 303 140 303 258.646617 236.7945 280 50.298"></polygon>
                    <path d="M140.650602,34 L53,231 L85.6807229,231 L103.301205,186.920307 L177.698795,186.920307 L195.319277,231 L228,231 L140.650602,34 Z M166.253012,159.747893 L115.048193,159.747893 L140.650602,98.0061303 L166.253012,159.747893 Z" id="Shape" fill="#8080F2"></path>
                </g>
            </g>
        </g>
    </g>
</svg>